<?xml version="1.0" standalone="yes"?><!DOCTYPE svg PUBLIC "-//W3C//DTD SVG 1.1//EN" "http://www.w3.org/Graphics/SVG/1.1/DTD/svg11.dtd"[
<!ENTITY E6 'stroke:none;opacity:1;fill:rgb(255,255,255);'><!ENTITY E3 'stroke:none;opacity:1;fill:rgb(68,154,223);'><!ENTITY E1 'stroke:rgb(169,169,169);fill:none;stroke-linecap:butt;stroke-miterlimit:9;opacity:1;stroke-width:1;stroke-linejoin:miter;'><!ENTITY E8 'matrix(1.00 0.00 0.00 1.00 0.00 0.00 ) '><!ENTITY E9 'matrix(1.00 0.00 0.00 1.00 244.00 4.00 ) '><!ENTITY E5 'stroke:rgb(255,255,255);fill:none;stroke-linecap:butt;stroke-miterlimit:9;opacity:1;stroke-width:2;stroke-linejoin:miter;'><!ENTITY E11 'stroke:none;fill-rule:evenodd;opacity:1;fill:rgb(255,255,255);'><!ENTITY E22 'matrix(1.00 0.00 0.00 1.00 4.00 4.00 ) '><!ENTITY E16 'M 20.824 23.115 20.824 7.098999 M 17.3572 17.48 17.3572 12.7339 M 13.8904 21.2046 13.8904 9.009602 M 10.4236 18.6248 10.4236 11.5896 M 6.9568 16.3923 6.9568 13.822 '><!ENTITY E18 'matrix(1.00 0.00 0.00 1.00 84.00 4.00 ) '><!ENTITY E15 'matrix(1.00 0.00 0.00 1.00 164.00 4.00 ) '><!ENTITY E2 'matrix(1.00 0.00 0.00 1.00 324.00 4.00 ) '>
]><svg width="392.8942" height="52.82519" id="SvgGdi_output" xmlns="http://www.w3.org/2000/svg"><rect id="background" height="100.00%" style="fill:rgb(255,255,255);" width="100.00%" y="0.00" x="0.00" /><g style="shape-rendering:auto;" id="root_group"><line y1="19.00" style="&E1;" id="65" x2="320.00" y2="19.00" x1="278.00" /><line y1="19.00" style="&E1;" id="66" x2="240.00" y2="19.00" x1="198.00" /><line y1="19.00" style="&E1;" id="67" x2="160.00" y2="19.00" x1="118.00" /><line y1="19.00" style="&E1;" id="68" x2="80.00" y2="19.00" x1="38.00" /><ellipse id="69" cy="15.00" cx="15.00" transform="&E2;" rx="15.00" ry="15.00" style="&E3;" /><path style="&E5;" transform="&E2;" id="70" d="M 16.849 10.062 23.4027 10.062 M 16.6038 19.6084 23.3505 19.6084 M 12.3075 17.1615 7.5719 21.8971 M 7.577335 17.152 12.31704 21.8917 M 6.564136 10.0047 13.30904 10.0047 M 9.936636 6.6288 9.936636 13.3806 " /><ellipse id="71" cy="16.33" cx="19.93" transform="&E2;" rx="1.30" ry="1.30" style="&E6;" /><ellipse id="72" cy="22.83" cx="19.93" transform="&E2;" rx="1.30" ry="1.30" style="&E6;" /><text id="73" transform="&E8;" x="324.00" y="39.00" style="stroke:none;clip-path:url(#75_text_clipper);font-family:Microsoft Sans Serif;fill:rgb(0,0,0);font-size:8.25pt;opacity:1;"><tspan dy="8.25pt" id="77">GreaterThan</tspan></text><ellipse id="79" cy="15.00" cx="15.00" transform="&E9;" rx="15.00" ry="15.00" style="&E3;" /><path style="&E11;" transform="&E9;" id="80" d="M 19.156 13.888 19.156 10.3647 19.156 6.841399 25.2585 10.3647 22.2072 12.1264 z " /><path style="&E11;" transform="&E9;" id="81" d="M 19.156 22.97 19.156 19.4467 19.156 15.9234 25.2585 19.4467 22.2072 21.2084 z " /><path style="&E5;" transform="&E9;" id="82" d="M 5.5001 19.484 10.6493 19.484 16.2743 10.2485 19.3728 10.2485 M 14.6769 17.1481 16.3089 19.4828 19.2202 19.4828 M 5.500199 10.2437 10.7586 10.2437 12.1652 12.8707 " /><text id="83" transform="&E8;" x="244.00" y="39.00" style="stroke:none;clip-path:url(#85_text_clipper);font-family:Microsoft Sans Serif;fill:rgb(0,0,0);font-size:8.25pt;opacity:1;"><tspan dy="8.25pt" id="87">Val0</tspan></text><ellipse id="89" cy="15.00" cx="15.00" transform="&E15;" rx="15.00" ry="15.00" style="&E3;" /><path d="&E16;" style="&E5;" transform="&E15;" id="90" /><text id="91" transform="&E8;" x="164.00" y="39.00" style="stroke:none;clip-path:url(#93_text_clipper);font-family:Microsoft Sans Serif;fill:rgb(0,0,0);font-size:8.25pt;opacity:1;"><tspan dy="8.25pt" id="95">Average</tspan></text><ellipse id="97" cy="15.00" cx="15.00" transform="&E18;" rx="15.00" ry="15.00" style="&E3;" /><path d="&E16;" style="&E5;" transform="&E18;" id="98" /><text id="99" transform="&E8;" x="84.00" y="39.00" style="stroke:none;clip-path:url(#101_text_clipper);font-family:Microsoft Sans Serif;fill:rgb(0,0,0);font-size:8.25pt;opacity:1;"><tspan dy="8.25pt" id="103">Buffer</tspan></text><path transform="&E22;" id="105" style="stroke:rgb(169,169,169);fill:none;stroke-linecap:butt;stroke-miterlimit:9;opacity:1;stroke-width:2;stroke-linejoin:miter;" d="M 31.179 5.2 C 34.9985 11.0918 34.9814 18.682 31.13552 24.557 " /><ellipse id="106" cy="15.00" cx="15.00" transform="&E22;" rx="15.00" ry="15.00" style="stroke:none;opacity:1;fill:rgb(91,178,126);" /><path style="&E11;" transform="&E22;" id="107" d="M 11.529 25.444 20.7834 12.908 16.3203 12.908 18.355 4.7687 9.100601 17.3047 13.5637 17.3047 z " /><text id="108" transform="&E8;" x="4.00" y="39.00" style="stroke:none;clip-path:url(#110_text_clipper);font-family:Microsoft Sans Serif;fill:rgb(0,0,0);font-size:8.25pt;opacity:1;"><tspan dy="8.25pt" id="112">AnalogInput</tspan></text></g><defs id="clips_hatches_and_gradients"><clipPath id="75_text_clipper"><rect x="324.00" y="39.00" width="67.89" height="13.83" id="76" /></clipPath><clipPath id="85_text_clipper"><rect x="244.00" y="39.00" width="26.41" height="13.83" id="86" /></clipPath><clipPath id="93_text_clipper"><rect x="164.00" y="39.00" width="45.86" height="13.83" id="94" /></clipPath><clipPath id="101_text_clipper"><rect x="84.00" y="39.00" width="33.89" height="13.83" id="102" /></clipPath><clipPath id="110_text_clipper"><rect x="4.00" y="39.00" width="64.20" height="13.83" id="111" /></clipPath></defs></svg>