<?xml version="1.0" standalone="yes"?><!DOCTYPE svg PUBLIC "-//W3C//DTD SVG 1.1//EN" "http://www.w3.org/Graphics/SVG/1.1/DTD/svg11.dtd"[
<!ENTITY E3 'stroke:none;opacity:1;fill:rgb(68,154,223);'><!ENTITY E8 'matrix(1.00 0.00 0.00 1.00 0.00 0.00 ) '><!ENTITY E14 'stroke:none;fill-rule:evenodd;opacity:1;fill:rgb(255,255,255);'><!ENTITY E5 'stroke:rgb(255,255,255);fill:none;stroke-linecap:butt;stroke-miterlimit:9;opacity:1;stroke-width:2;stroke-linejoin:miter;'><!ENTITY E20 'matrix(1.00 0.00 0.00 1.00 84.00 4.00 ) '><!ENTITY E24 'matrix(1.00 0.00 0.00 1.00 4.00 4.00 ) '><!ENTITY E6 'stroke:none;opacity:1;fill:rgb(255,255,255);'><!ENTITY E18 'matrix(1.00 0.00 0.00 1.00 164.00 4.00 ) '><!ENTITY E9 'matrix(1.00 0.00 0.00 1.00 324.00 4.00 ) '><!ENTITY E12 'matrix(1.00 0.00 0.00 1.00 244.00 4.00 ) '><!ENTITY E2 'matrix(1.00 0.00 0.00 1.00 404.00 4.00 ) '><!ENTITY E1 'stroke:rgb(169,169,169);fill:none;stroke-linecap:butt;stroke-miterlimit:9;opacity:1;stroke-width:1;stroke-linejoin:miter;'><!ENTITY E10 'M 20.824 23.115 20.824 7.098999 M 17.3572 17.48 17.3572 12.7339 M 13.8904 21.2046 13.8904 9.009602 M 10.4236 18.6248 10.4236 11.5896 M 6.9568 16.3923 6.9568 13.822 '>
]><svg width="472.8942" height="52.82519" id="SvgGdi_output" xmlns="http://www.w3.org/2000/svg"><rect id="background" height="100.00%" style="fill:rgb(255,255,255);" width="100.00%" y="0.00" x="0.00" /><g style="shape-rendering:auto;" id="root_group"><line y1="19.00" style="&E1;" id="118" x2="400.00" y2="19.00" x1="358.00" /><line y1="19.00" style="&E1;" id="119" x2="320.00" y2="19.00" x1="278.00" /><line y1="19.00" style="&E1;" id="120" x2="240.00" y2="19.00" x1="198.00" /><line y1="19.00" style="&E1;" id="121" x2="160.00" y2="19.00" x1="118.00" /><line y1="19.00" style="&E1;" id="122" x2="80.00" y2="19.00" x1="38.00" /><ellipse id="123" cy="15.00" cx="15.00" transform="&E2;" rx="15.00" ry="15.00" style="&E3;" /><path style="&E5;" transform="&E2;" id="124" d="M 16.849 10.062 23.4027 10.062 M 16.6038 19.6084 23.3505 19.6084 M 12.3075 17.1615 7.5719 21.8971 M 7.577335 17.152 12.31704 21.8917 M 6.564136 10.0047 13.30904 10.0047 M 9.936636 6.6288 9.936636 13.3806 " /><ellipse id="125" cy="16.33" cx="19.93" transform="&E2;" rx="1.30" ry="1.30" style="&E6;" /><ellipse id="126" cy="22.83" cx="19.93" transform="&E2;" rx="1.30" ry="1.30" style="&E6;" /><text id="127" transform="&E8;" x="404.00" y="39.00" style="stroke:none;clip-path:url(#129_text_clipper);font-family:Microsoft Sans Serif;fill:rgb(0,0,0);font-size:8.25pt;opacity:1;"><tspan dy="8.25pt" id="131">GreaterThan</tspan></text><ellipse id="133" cy="15.00" cx="15.00" transform="&E9;" rx="15.00" ry="15.00" style="&E3;" /><path d="&E10;" style="&E5;" transform="&E9;" id="134" /><text id="135" transform="&E8;" x="324.00" y="39.00" style="stroke:none;clip-path:url(#137_text_clipper);font-family:Microsoft Sans Serif;fill:rgb(0,0,0);font-size:8.25pt;opacity:1;"><tspan dy="8.25pt" id="139">Rescale</tspan></text><ellipse id="141" cy="15.00" cx="15.00" transform="&E12;" rx="15.00" ry="15.00" style="&E3;" /><path style="&E14;" transform="&E12;" id="142" d="M 19.156 13.888 19.156 10.3647 19.156 6.841399 25.2585 10.3647 22.2072 12.1264 z " /><path style="&E14;" transform="&E12;" id="143" d="M 19.156 22.97 19.156 19.4467 19.156 15.9234 25.2585 19.4467 22.2072 21.2084 z " /><path style="&E5;" transform="&E12;" id="144" d="M 5.5001 19.484 10.6493 19.484 16.2743 10.2485 19.3728 10.2485 M 14.6769 17.1481 16.3089 19.4828 19.2202 19.4828 M 5.500199 10.2437 10.7586 10.2437 12.1652 12.8707 " /><text id="145" transform="&E8;" x="244.00" y="39.00" style="stroke:none;clip-path:url(#147_text_clipper);font-family:Microsoft Sans Serif;fill:rgb(0,0,0);font-size:8.25pt;opacity:1;"><tspan dy="8.25pt" id="149">Val0</tspan></text><ellipse id="151" cy="15.00" cx="15.00" transform="&E18;" rx="15.00" ry="15.00" style="&E3;" /><path d="&E10;" style="&E5;" transform="&E18;" id="152" /><text id="153" transform="&E8;" x="164.00" y="39.00" style="stroke:none;clip-path:url(#155_text_clipper);font-family:Microsoft Sans Serif;fill:rgb(0,0,0);font-size:8.25pt;opacity:1;"><tspan dy="8.25pt" id="157">Average</tspan></text><ellipse id="159" cy="15.00" cx="15.00" transform="&E20;" rx="15.00" ry="15.00" style="&E3;" /><path d="&E10;" style="&E5;" transform="&E20;" id="160" /><text id="161" transform="&E8;" x="84.00" y="39.00" style="stroke:none;clip-path:url(#163_text_clipper);font-family:Microsoft Sans Serif;fill:rgb(0,0,0);font-size:8.25pt;opacity:1;"><tspan dy="8.25pt" id="165">Buffer</tspan></text><path transform="&E24;" id="167" style="stroke:rgb(169,169,169);fill:none;stroke-linecap:butt;stroke-miterlimit:9;opacity:1;stroke-width:2;stroke-linejoin:miter;" d="M 31.179 5.2 C 34.9985 11.0918 34.9814 18.682 31.13552 24.557 " /><ellipse id="168" cy="15.00" cx="15.00" transform="&E24;" rx="15.00" ry="15.00" style="stroke:none;opacity:1;fill:rgb(91,178,126);" /><path style="&E14;" transform="&E24;" id="169" d="M 11.529 25.444 20.7834 12.908 16.3203 12.908 18.355 4.7687 9.100601 17.3047 13.5637 17.3047 z " /><text id="170" transform="&E8;" x="4.00" y="39.00" style="stroke:none;clip-path:url(#172_text_clipper);font-family:Microsoft Sans Serif;fill:rgb(0,0,0);font-size:8.25pt;opacity:1;"><tspan dy="8.25pt" id="174">AnalogInput</tspan></text></g><defs id="clips_hatches_and_gradients"><clipPath id="129_text_clipper"><rect x="404.00" y="39.00" width="67.89" height="13.83" id="130" /></clipPath><clipPath id="137_text_clipper"><rect x="324.00" y="39.00" width="44.66" height="13.83" id="138" /></clipPath><clipPath id="147_text_clipper"><rect x="244.00" y="39.00" width="26.41" height="13.83" id="148" /></clipPath><clipPath id="155_text_clipper"><rect x="164.00" y="39.00" width="45.86" height="13.83" id="156" /></clipPath><clipPath id="163_text_clipper"><rect x="84.00" y="39.00" width="33.89" height="13.83" id="164" /></clipPath><clipPath id="172_text_clipper"><rect x="4.00" y="39.00" width="64.20" height="13.83" id="173" /></clipPath></defs></svg>