<?xml version="1.0" encoding="utf-8"?>
<!-- Generator: Adobe Illustrator 26.0.3, SVG Export Plug-In . SVG Version: 6.00 Build 0)  -->
<svg version="1.1" id="Layer_1" xmlns="http://www.w3.org/2000/svg" xmlns:xlink="http://www.w3.org/1999/xlink" x="0px" y="0px"
	 viewBox="0 0 300 75.1" style="enable-background:new 0 0 300 75.1;" xml:space="preserve">
<style type="text/css">
	.st0{fill:#FFFFFF;}
	.st1{fill:none;stroke:#2FB6DF;stroke-width:3.59;stroke-linecap:round;stroke-miterlimit:10;}
	.st2{fill:none;stroke:#D6AACD;stroke-width:3.59;stroke-linecap:round;stroke-miterlimit:10;}
	.st3{fill:none;stroke:#B5B5B6;stroke-width:3.59;stroke-linecap:round;stroke-miterlimit:10;}
	.st4{fill:none;stroke:#EA6A3F;stroke-width:3.59;stroke-linecap:round;stroke-miterlimit:10;}
	.st5{fill:none;stroke:#FBD026;stroke-width:3.59;stroke-linecap:round;stroke-miterlimit:10;}
	.st6{fill:#2FB6DF;}
	.st7{fill:none;stroke:#D15527;stroke-width:3.59;stroke-linecap:round;stroke-miterlimit:10;}
	.st8{fill:none;}
</style>
<g>
	<g id="Layer_1_1_">
		<circle class="st0" cx="37.5" cy="37.5" r="33.8"/>
		<line class="st1" x1="48.3" y1="9.5" x2="56.6" y2="59.2"/>
		<line class="st1" x1="27.7" y1="20.5" x2="56.6" y2="59.2"/>
		<line class="st2" x1="8.6" y1="40" x2="27.7" y2="20.5"/>
		<line class="st3" x1="8.6" y1="40" x2="56.6" y2="59.2"/>
		<line class="st1" x1="56.6" y1="59.2" x2="61.9" y2="44.4"/>
		<line class="st4" x1="27.7" y1="20.5" x2="61.9" y2="44.4"/>
		<line class="st3" x1="8.6" y1="40" x2="61.9" y2="44.4"/>
		<line class="st5" x1="48.3" y1="9.5" x2="61.9" y2="44.4"/>
		<path class="st6" d="M40.5,28.5"/>
		<path class="st7" d="M41.9,29.7"/>
		<path class="st6" d="M28.1,30.2"/>
		<path class="st6" d="M28.1,30.2"/>
		<circle class="st8" cx="37.5" cy="37.5" r="37.5"/>
	</g>
</g>
<g>
	<path class="st0" d="M103.3,29.8c0,1-0.8,1.7-1.7,1.7h-3v19c0,1-0.8,1.7-1.7,1.7c-1,0-1.7-0.8-1.7-1.7v-19h-3c-1,0-1.7-0.8-1.7-1.7
		s0.8-1.7,1.7-1.7h9.4C102.5,28.1,103.3,28.8,103.3,29.8z"/>
	<path class="st0" d="M103.1,46.9v-7.2c0-2.9,2.3-5.2,5.2-5.2c2.9,0,5.2,2.3,5.2,5.2v3.6c0,0.9-0.7,1.6-1.6,1.6h-5.6v2
		c0,0.8,0.5,1.5,1.2,1.8c0.8,0.3,1.6,0.1,2.2-0.4c0.3-0.3,0.7-0.5,1.1-0.5c0.5,0,0.9,0.2,1.2,0.5c0.3,0.3,0.5,0.7,0.5,1.2
		s-0.1,0.8-0.5,1.2c-1.5,1.5-3.7,1.9-5.7,1.1C104.3,50.9,103.1,49.1,103.1,46.9z M106.3,39.7v2h4v-2c0-1.1-0.9-2-2-2
		S106.3,38.6,106.3,39.7z"/>
	<path class="st0" d="M119.7,50.5c0,0.9-0.8,1.6-1.6,1.6c-0.9,0-1.6-0.7-1.6-1.6V36.3c0-0.9,0.7-1.6,1.6-1.6h10.8
		c2.8,0,5.2,2.3,5.2,5.2v10.7c0,0.9-0.8,1.6-1.6,1.6c-0.9,0-1.6-0.7-1.6-1.6V39.9c0-1.1-0.9-2-2-2h-2v12.6c0,0.9-0.8,1.6-1.6,1.6
		c-0.9,0-1.6-0.7-1.6-1.6V37.9h-4V50.5z"/>
	<path class="st0" d="M137.4,57.7V36.3c0-0.9,0.7-1.6,1.6-1.6h3.6c2.9,0,5.2,2.3,5.2,5.2v6.9c0,2.9-2.3,5.2-5.2,5.2h-2v5.7
		c0,0.9-0.7,1.6-1.6,1.6C138.1,59.3,137.4,58.6,137.4,57.7z M142.6,37.9h-2v10.9h2c1.1,0,2-0.9,2-2v-6.9
		C144.6,38.7,143.7,37.9,142.6,37.9z"/>
	<path class="st0" d="M150.9,48V28.9c0-0.9,0.8-1.6,1.6-1.6c0.9,0,1.6,0.7,1.6,1.6V48c0,0.5,0.2,0.8,0.6,1.1c0.8,0.5,1,1.4,0.6,2.2
		c-0.4,0.8-1.4,1-2.2,0.6C151.8,51.1,150.9,49.6,150.9,48z"/>
	<path class="st0" d="M164.3,39.6c0-0.8-0.5-1.5-1.2-1.8c-0.7-0.3-1.5-0.1-2.1,0.4c-0.3,0.3-0.7,0.5-1.2,0.5c-0.4,0-0.8-0.1-1.1-0.5
		c-0.3-0.3-0.5-0.7-0.5-1.2s0.2-0.8,0.5-1.2c1.5-1.5,3.7-1.9,5.6-1.1c2,0.8,3.2,2.6,3.2,4.8v10.7c0,0.9-0.7,1.6-1.6,1.6h-3.6
		c-2.9,0-5.2-2.3-5.2-5.2c0-2.9,2.3-5.2,5.2-5.2h2V39.6z M160.4,46.8c0,1.1,0.9,2,2,2h2v-4h-2C161.2,44.8,160.4,45.7,160.4,46.8z"/>
	<path class="st0" d="M169.6,36.3c0-0.9,0.7-1.6,1.6-1.6h1.3v-5.7c0-0.9,0.7-1.6,1.6-1.6c0.9,0,1.6,0.7,1.6,1.6v5.7h2
		c0.9,0,1.6,0.7,1.6,1.6c0,0.9-0.7,1.6-1.6,1.6h-2v9c0,1.1,0.9,2,2,2c0.9,0,1.6,0.7,1.6,1.6c0,0.9-0.7,1.6-1.6,1.6
		c-2.9,0-5.2-2.3-5.2-5.2v-9h-1.3C170.4,37.9,169.6,37.2,169.6,36.3z"/>
	<path class="st0" d="M181.4,46.9v-7.2c0-2.9,2.3-5.2,5.2-5.2c2.9,0,5.2,2.3,5.2,5.2v3.6c0,0.9-0.7,1.6-1.6,1.6h-5.6v2
		c0,0.8,0.5,1.5,1.2,1.8c0.8,0.3,1.6,0.1,2.2-0.4c0.3-0.3,0.7-0.5,1.1-0.5c0.5,0,0.9,0.2,1.2,0.5c0.3,0.3,0.5,0.7,0.5,1.2
		s-0.1,0.8-0.5,1.2c-1.5,1.5-3.7,1.9-5.7,1.1C182.6,50.9,181.4,49.1,181.4,46.9z M184.6,39.7v2h4v-2c0-1.1-0.9-2-2-2
		C185.5,37.7,184.6,38.6,184.6,39.7z"/>
</g>
</svg>
